<svg width="324" height="100" viewBox="0 0 324 100" fill="none" xmlns="http://www.w3.org/2000/svg">
<path d="M36.81 77.12C32.3766 77.12 28.5966 76.3733 25.47 74.88C22.39 73.3867 19.8933 71.4033 17.98 68.93C16.0666 66.41 14.6666 63.6333 13.78 60.6C12.8933 57.5667 12.45 54.5333 12.45 51.5C12.45 48.56 12.94 45.5967 13.92 42.61C14.9466 39.5767 16.4633 36.8 18.47 34.28C20.5233 31.76 23.09 29.73 26.17 28.19C29.25 26.65 32.8666 25.88 37.02 25.88C41.2666 25.88 44.93 26.65 48.01 28.19C51.09 29.73 53.61 31.7833 55.57 34.35C57.53 36.87 58.9766 39.6233 59.91 42.61C60.89 45.5967 61.38 48.56 61.38 51.5C61.38 54.3933 60.8666 57.3333 59.84 60.32C58.86 63.3067 57.3433 66.0833 55.29 68.65C53.2833 71.17 50.74 73.2233 47.66 74.81C44.58 76.35 40.9633 77.12 36.81 77.12ZM37.58 72.01C40.0066 72.01 42.0366 71.4267 43.67 70.26C45.3033 69.0467 46.61 67.4833 47.59 65.57C48.57 63.6567 49.27 61.58 49.69 59.34C50.11 57.0533 50.32 54.8367 50.32 52.69C50.32 48.3967 49.8066 44.6167 48.78 41.35C47.7533 38.0833 46.19 35.5167 44.09 33.65C42.0366 31.7833 39.3766 30.8967 36.11 30.99C33.73 31.0367 31.7233 31.69 30.09 32.95C28.4566 34.1633 27.15 35.75 26.17 37.71C25.19 39.6233 24.49 41.7233 24.07 44.01C23.65 46.2967 23.44 48.5133 23.44 50.66C23.44 52.8533 23.6733 55.1867 24.14 57.66C24.6533 60.1333 25.4466 62.4667 26.52 64.66C27.5933 66.8533 29.04 68.6267 30.86 69.98C32.68 71.3333 34.92 72.01 37.58 72.01Z" fill="white"/>
<path d="M66.6688 76V71.45C68.5821 71.45 69.7488 70.89 70.1688 69.77C70.5888 68.6033 70.7988 67.0867 70.7988 65.22V53.46C70.7988 52.62 70.8221 51.6867 70.8688 50.66C70.9154 49.5867 70.9854 48.5367 71.0788 47.51C70.3321 47.5567 69.4454 47.6033 68.4188 47.65C67.4388 47.65 66.6921 47.6733 66.1788 47.72V42.4C69.3988 42.4 71.8721 42.1667 73.5988 41.7C75.3721 41.2333 76.4921 40.7667 76.9588 40.3H80.3888C80.4821 40.7667 80.5288 41.35 80.5288 42.05C80.5754 42.75 80.6221 43.3333 80.6688 43.8C82.2554 42.5867 83.9588 41.63 85.7788 40.93C87.6454 40.23 89.3954 39.88 91.0288 39.88C93.1754 39.88 94.9488 40.2767 96.3488 41.07C97.7488 41.8167 98.8688 42.96 99.7088 44.5C101.389 43.1 103.232 41.98 105.239 41.14C107.292 40.3 109.252 39.88 111.119 39.88C114.899 39.88 117.745 40.9767 119.659 43.17C121.619 45.3167 122.599 49.0733 122.599 54.44V64.73C122.599 65.3833 122.575 66.3167 122.529 67.53C122.482 68.6967 122.412 69.8167 122.319 70.89C123.065 70.7967 123.882 70.75 124.769 70.75C125.702 70.7033 126.402 70.68 126.869 70.68V76H109.159V71.45C110.792 71.45 111.772 70.89 112.099 69.77C112.472 68.6033 112.659 67.0867 112.659 65.22V54.51C112.612 51.4767 112.099 49.3767 111.119 48.21C110.185 47.0433 108.925 46.4367 107.339 46.39C106.125 46.3433 104.982 46.5533 103.909 47.02C102.882 47.4867 101.949 48.0467 101.109 48.7C101.529 50.5667 101.739 52.7833 101.739 55.35V64.73C101.739 65.3833 101.715 66.3167 101.669 67.53C101.622 68.6967 101.552 69.8167 101.459 70.89C102.205 70.7967 103.022 70.75 103.909 70.75C104.795 70.7033 105.495 70.68 106.009 70.68V76H87.9488V71.45C89.7221 71.45 90.7954 70.89 91.1688 69.77C91.5888 68.6033 91.7988 67.0867 91.7988 65.22L91.7288 54.3C91.7288 51.2667 91.2854 49.19 90.3988 48.07C89.5121 46.95 88.2755 46.3667 86.6888 46.32C85.5221 46.32 84.4254 46.5767 83.3988 47.09C82.4188 47.6033 81.5321 48.21 80.7388 48.91V64.73C80.7388 65.3833 80.7154 66.3167 80.6688 67.53C80.6221 68.6967 80.5521 69.8167 80.4588 70.89C81.2054 70.7967 81.9754 70.75 82.7688 70.75C83.5621 70.7033 84.1921 70.68 84.6588 70.68V76H66.6688Z" fill="white"/>
<path d="M147.653 77.12C144.247 77.12 141.237 76.3733 138.623 74.88C136.01 73.34 133.98 71.1933 132.533 68.44C131.087 65.64 130.363 62.35 130.363 58.57C130.363 55.3033 131.087 52.2467 132.533 49.4C133.98 46.5533 136.01 44.2667 138.623 42.54C141.283 40.7667 144.363 39.88 147.863 39.88C149.823 39.88 151.737 40.16 153.603 40.72C155.47 41.2333 157.15 42.1433 158.643 43.45C160.183 44.7567 161.397 46.53 162.283 48.77C163.217 51.01 163.66 53.81 163.613 57.17L140.653 57.59C140.653 60.11 140.957 62.3733 141.563 64.38C142.217 66.3867 143.267 67.9733 144.713 69.14C146.16 70.3067 148.097 70.89 150.523 70.89C151.923 70.89 153.58 70.5167 155.493 69.77C157.453 68.9767 159.227 67.6 160.813 65.64L163.963 68.58C162.283 70.96 160.487 72.78 158.573 74.04C156.66 75.2533 154.747 76.07 152.833 76.49C150.967 76.91 149.24 77.12 147.653 77.12ZM141.073 52.69H153.953C153.907 49.7967 153.347 47.7667 152.273 46.6C151.2 45.3867 149.847 44.78 148.213 44.78C146.16 44.78 144.55 45.5267 143.383 47.02C142.217 48.4667 141.447 50.3567 141.073 52.69Z" fill="white"/>
<path d="M182.239 77.12C179.439 77.12 176.966 76.3967 174.819 74.95C172.719 73.5033 171.063 71.45 169.849 68.79C168.683 66.13 168.099 63.0033 168.099 59.41C168.099 55.63 168.823 52.27 170.269 49.33C171.716 46.39 173.746 44.08 176.359 42.4C178.973 40.72 182.006 39.88 185.459 39.88C186.719 39.88 187.839 40.02 188.819 40.3C189.846 40.5333 190.803 40.8133 191.689 41.14V36.52C191.689 35.8667 191.713 34.9333 191.759 33.72C191.806 32.5067 191.876 31.3867 191.969 30.36C191.223 30.4067 190.336 30.4533 189.309 30.5C188.283 30.5467 187.513 30.57 186.999 30.57V25.25C190.266 25.25 192.763 25.0167 194.489 24.55C196.216 24.0833 197.313 23.6167 197.779 23.15H201.559V64.73C201.559 65.3833 201.536 66.3167 201.489 67.53C201.443 68.6967 201.373 69.8167 201.279 70.89C202.073 70.7967 202.913 70.75 203.799 70.75C204.686 70.7033 205.363 70.68 205.829 70.68V76H192.529C192.483 75.4867 192.413 74.95 192.319 74.39C192.273 73.83 192.203 73.2933 192.109 72.78C190.569 74.3667 188.983 75.4867 187.349 76.14C185.716 76.7933 184.013 77.12 182.239 77.12ZM185.879 70.75C187.093 70.75 188.213 70.4467 189.239 69.84C190.266 69.1867 191.083 68.37 191.689 67.39V46.39C191.223 46.0167 190.523 45.7133 189.589 45.48C188.656 45.2 187.699 45.06 186.719 45.06C184.573 45.1067 182.893 45.7833 181.679 47.09C180.466 48.3967 179.603 50.0533 179.089 52.06C178.623 54.0667 178.389 56.1667 178.389 58.36C178.389 60.32 178.623 62.2567 179.089 64.17C179.603 66.0833 180.396 67.67 181.469 68.93C182.589 70.1433 184.059 70.75 185.879 70.75Z" fill="white"/>
<path d="M227.019 77.12C223.612 77.12 220.602 76.3733 217.989 74.88C215.375 73.34 213.345 71.1933 211.899 68.44C210.452 65.64 209.729 62.35 209.729 58.57C209.729 55.3033 210.452 52.2467 211.899 49.4C213.345 46.5533 215.375 44.2667 217.989 42.54C220.649 40.7667 223.729 39.88 227.229 39.88C229.189 39.88 231.102 40.16 232.969 40.72C234.835 41.2333 236.515 42.1433 238.009 43.45C239.549 44.7567 240.762 46.53 241.649 48.77C242.582 51.01 243.025 53.81 242.979 57.17L220.019 57.59C220.019 60.11 220.322 62.3733 220.929 64.38C221.582 66.3867 222.632 67.9733 224.079 69.14C225.525 70.3067 227.462 70.89 229.889 70.89C231.289 70.89 232.945 70.5167 234.859 69.77C236.819 68.9767 238.592 67.6 240.179 65.64L243.329 68.58C241.649 70.96 239.852 72.78 237.939 74.04C236.025 75.2533 234.112 76.07 232.199 76.49C230.332 76.91 228.605 77.12 227.019 77.12ZM220.439 52.69H233.319C233.272 49.7967 232.712 47.7667 231.639 46.6C230.565 45.3867 229.212 44.78 227.579 44.78C225.525 44.78 223.915 45.5267 222.749 47.02C221.582 48.4667 220.812 50.3567 220.439 52.69Z" fill="white"/>
<path d="M261.955 77.12C260.555 77.12 259.201 76.9567 257.895 76.63C256.635 76.3033 255.468 75.6967 254.395 74.81C253.368 73.8767 252.551 72.5233 251.945 70.75C251.338 68.9767 251.035 66.62 251.035 63.68L251.175 46.81H246.415V41C247.861 40.9533 249.261 40.4633 250.615 39.53C251.968 38.5967 253.111 37.3833 254.045 35.89C255.025 34.3967 255.678 32.8333 256.005 31.2H261.185L261.115 41H270.005V46.39L261.115 46.6L261.045 63.82C261.045 64.8933 261.138 65.9667 261.325 67.04C261.558 68.0667 261.978 68.93 262.585 69.63C263.191 70.2833 264.078 70.61 265.245 70.61C265.898 70.61 266.785 70.3767 267.905 69.91C269.071 69.4433 270.308 68.2767 271.615 66.41L274.975 69.56C273.715 71.4267 272.408 72.8733 271.055 73.9C269.701 74.9267 268.395 75.6733 267.135 76.14C265.921 76.6067 264.848 76.8867 263.915 76.98C262.981 77.0733 262.328 77.12 261.955 77.12Z" fill="white"/>
<path d="M294.161 77.12C290.801 77.12 287.767 76.3967 285.061 74.95C282.354 73.5033 280.207 71.45 278.621 68.79C277.081 66.0833 276.311 62.91 276.311 59.27C276.311 55.3967 277.104 52.0133 278.691 49.12C280.324 46.18 282.471 43.9167 285.131 42.33C287.837 40.6967 290.777 39.88 293.951 39.88C297.311 39.88 300.321 40.6033 302.981 42.05C305.641 43.4967 307.741 45.5733 309.281 48.28C310.821 50.94 311.591 54.1367 311.591 57.87C311.591 61.79 310.844 65.1967 309.351 68.09C307.857 70.9833 305.804 73.2233 303.191 74.81C300.577 76.35 297.567 77.12 294.161 77.12ZM294.441 72.15C296.307 72.1033 297.707 71.45 298.641 70.19C299.621 68.93 300.297 67.3433 300.671 65.43C301.044 63.5167 301.231 61.58 301.231 59.62C301.231 57.8933 301.091 56.1433 300.811 54.37C300.577 52.5967 300.181 50.9867 299.621 49.54C299.061 48.0933 298.291 46.9267 297.311 46.04C296.377 45.1533 295.211 44.7333 293.811 44.78C291.991 44.8267 290.544 45.48 289.471 46.74C288.444 48 287.697 49.5867 287.231 51.5C286.811 53.3667 286.601 55.3267 286.601 57.38C286.601 59.76 286.857 62.0933 287.371 64.38C287.884 66.6667 288.701 68.5567 289.821 70.05C290.987 71.4967 292.527 72.1967 294.441 72.15ZM284.011 32.11V25.39H303.891V31.83L284.011 32.11Z" fill="white"/>
</svg>
